ffmpeg version N-82167-g5e96558 Copyright (c) 2000-2016 the FFmpeg developers
  built with gcc 5.4.0 (Ubuntu 5.4.0-6ubuntu1~16.04.2) 20160609
  configuration: --prefix=/root/ffmpeg_build --pkg-config-flags=--static --extra-cflags=-I/root/ffmpeg_build/include --extra-ldflags=-L/root/ffmpeg_build/lib --bindir=/root/bin --enable-gpl --enable-libass --enable-libfdk-aac --enable-libfreetype --enable-libmp3lame --enable-libopus --enable-libtheora --enable-libvorbis --enable-libx264 --enable-libx265 --enable-nonfree
  libavutil      55. 35.100 / 55. 35.100
  libavcodec     57. 65.100 / 57. 65.100
  libavformat    57. 57.100 / 57. 57.100
  libavdevice    57.  2.100 / 57.  2.100
  libavfilter     6. 66.100 /  6. 66.100
  libswscale      4.  3.100 /  4.  3.100
  libswresample   2.  4.100 /  2.  4.100
  libpostproc    54.  2.100 / 54.  2.100
Input #0, matroska,webm, from '/media/yubikiri/bot/queue/3AnimePahe_Detective_Conan_-_058_720p_Fansub.mkv':
  Metadata:
    title           : 3|Text||0|0
    ALBUM           : Anime
    LANGUAGE        : Undefined
    ENCODER         : Lavf57.57.100
  Duration: 00:24:29.43, start: 0.000000, bitrate: 976 kb/s
    Stream #0:0: Video: mpeg4 (Advanced Simple Profile), yuv420p, 640x480 [SAR 1:1 DAR 4:3], 23.98 fps, 23.98 tbr, 1k tbn, 23.98 tbc (default)
    Metadata:
      DURATION        : 00:24:29.427000000
    Stream #0:1: Audio: mp3, 48000 Hz, stereo, s16p, 128 kb/s (default)
    Metadata:
      DURATION        : 00:24:29.376000000
[libx264 @ 0x3e61340] using SAR=1/1
[libx264 @ 0x3e61340] using cpu capabilities: MMX2 SSE2Fast SSSE3 SSE4.2 AVX FMA3 AVX2 LZCNT BMI2
[libx264 @ 0x3e61340] profile High, level 3.1
[libx264 @ 0x3e61340] 264 - core 148 r2643 5c65704 - H.264/MPEG-4 AVC codec - Copyleft 2003-2015 - http://www.videolan.org/x264.html - options: cabac=1 ref=8 deblock=1:1:1 analyse=0x3:0x133 me=umh subme=7 psy=1 psy_rd=0.00:0.00 mixed_ref=1 me_range=8 chroma_me=1 trellis=0 8x8dct=1 cqm=0 deadzone=21,11 fast_pskip=1 chroma_qp_offset=0 threads=8 lookahead_threads=2 sliced_threads=0 nr=0 decimate=1 interlaced=0 bluray_compat=0 constrained_intra=0 bframes=3 b_pyramid=2 b_adapt=2 b_bias=0 direct=1 weightb=1 open_gop=0 weightp=2 keyint=240 keyint_min=24 scenecut=40 intra_refresh=0 rc_lookahead=60 rc=crf mbtree=1 crf=27.0 qcomp=0.60 qpmin=0 qpmax=69 qpstep=4 ip_ratio=1.40 aq=1:1.00
[libfdk_aac @ 0x3dea1a0] Note, the VBR setting is unsupported and only works with some parameter combinations
Output #0, mp4, to '/media/yubikiri/bot/queue/3AnimePahe_Detective_Conan_-_058_720p_Fansub.mkv_encoded.mp4':
  Metadata:
    encoder         : Lavf57.57.100
    Stream #0:0: Video: h264 (libx264) ([33][0][0][0] / 0x0021), yuv420p, 640x480 [SAR 1:1 DAR 4:3], q=-1--1, 23.98 fps, 24k tbn, 23.98 tbc (default)
    Metadata:
      encoder         : Lavc57.65.100 libx264
    Side data:
      cpb: bitrate max/min/avg: 0/0/0 buffer size: 0 vbv_delay: -1
    Stream #0:1: Audio: aac (libfdk_aac) (HE-AACv2) ([64][0][0][0] / 0x0040), 48000 Hz, stereo, s16, 48 kb/s (default)
    Metadata:
      encoder         : Lavc57.65.100 libfdk_aac
Stream mapping:
  Stream #0:0 -> #0:0 (mpeg4 (native) -> h264 (libx264))
  Stream #0:1 -> #0:1 (mp3 (native) -> aac (libfdk_aac))
Press [q] to stop, [?] for help
frame=  127 fps=0.0 q=32.0 size=      82kB time=00:00:05.44 bitrate= 124.1kbits/s dup=1 drop=0 speed=10.8x    frame=  183 fps=181 q=32.0 size=     202kB time=00:00:07.78 bitrate= 212.5kbits/s dup=1 drop=0 speed=7.71x    frame=  236 fps=156 q=32.0 size=     324kB time=00:00:10.04 bitrate= 264.0kbits/s dup=1 drop=0 speed=6.65x    frame=  297 fps=147 q=32.0 size=     476kB time=00:00:12.56 bitrate= 310.4kbits/s dup=1 drop=0 speed=6.21x    frame=  365 fps=145 q=32.0 size=     590kB time=00:00:15.42 bitrate= 313.5kbits/s dup=1 drop=0 speed=6.11x    frame=  409 fps=135 q=32.0 size=     723kB time=00:00:17.21 bitrate= 343.8kbits/s dup=1 drop=0 speed=5.69x    frame=  468 fps=133 q=32.0 size=     843kB time=00:00:19.69 bitrate= 350.8kbits/s dup=1 drop=0 speed=5.58x    frame=  533 fps=132 q=32.0 size=     972kB time=00:00:22.37 bitrate= 355.7kbits/s dup=1 drop=0 speed=5.55x    frame=  599 fps=130 q=32.0 size=    1080kB time=00:00:25.15 bitrate= 351.8kbits/s dup=1 drop=0 speed=5.48x    frame=  656 fps=129 q=32.0 size=    1199kB time=00:00:27.54 bitrate= 356.5kbits/s dup=1 drop=0 speed= 5.4x    frame=  754 fps=135 q=32.0 size=    1299kB time=00:00:31.59 bitrate= 336.8kbits/s dup=1 drop=0 speed=5.64x    frame=  831 fps=136 q=32.0 size=    1426kB time=00:00:34.83 bitrate= 335.3kbits/s dup=1 drop=0 speed=5.68x    frame=  891 fps=134 q=32.0 size=    1516kB time=00:00:37.31 bitrate= 332.8kbits/s dup=1 drop=0 speed=5.61x    frame=  949 fps=133 q=32.0 size=    1569kB time=00:00:39.74 bitrate= 323.5kbits/s dup=1 drop=0 speed=5.55x    frame=  981 fps=128 q=32.0 size=    1657kB time=00:00:41.06 bitrate= 330.6kbits/s dup=1 drop=0 speed=5.35x    frame= 1003 fps=122 q=32.0 size=    1754kB time=00:00:41.96 bitrate= 342.3kbits/s dup=1 drop=0 speed=5.11x    frame= 1049 fps=120 q=32.0 size=    1853kB time=00:00:43.92 bitrate= 345.5kbits/s dup=1 drop=0 speed=5.03x    frame= 1100 fps=119 q=32.0 size=    1980kB time=00:00:46.01 bitrate= 352.6kbits/s dup=1 drop=0 speed=4.97x    frame= 1164 fps=119 q=32.0 size=    2098kB time=00:00:48.70 bitrate= 352.8kbits/s dup=1 drop=0 speed=4.99x    frame= 1196 fps=116 q=32.0 size=    2193kB time=00:00:50.02 bitrate= 359.1kbits/s dup=1 drop=0 speed=4.86x    frame= 1240 fps=114 q=32.0 size=    2308kB time=00:00:51.90 bitrate= 364.3kbits/s dup=1 drop=0 speed=4.79x    frame= 1287 fps=113 q=32.0 size=    2414kB time=00:00:53.82 bitrate= 367.4kbits/s dup=1 drop=0 speed=4.75x    frame= 1347 fps=114 q=32.0 size=    2545kB time=00:00:56.34 bitrate= 370.0kbits/s dup=1 drop=0 speed=4.76x    frame= 1428 fps=116 q=32.0 size=    2626kB time=00:00:59.75 bitrate= 359.9kbits/s dup=1 drop=0 speed=4.84x    frame= 1508 fps=117 q=32.0 size=    2705kB time=00:01:03.04 bitrate= 351.5kbits/s dup=1 drop=0 speed=4.91x    frame= 1565 fps=117 q=32.0 size=    2818kB time=00:01:05.43 bitrate= 352.8kbits/s dup=1 drop=0 speed= 4.9x    frame= 1616 fps=117 q=32.0 size=    2907kB time=00:01:07.56 bitrate= 352.4kbits/s dup=1 drop=0 speed=4.87x    frame= 1669 fps=116 q=32.0 size=    3000kB time=00:01:09.78 bitrate= 352.2kbits/s dup=1 drop=0 speed=4.86x    frame= 1730 fps=116 q=32.0 size=    3104kB time=00:01:12.29 bitrate= 351.7kbits/s dup=1 drop=0 speed=4.86x    frame= 1815 fps=118 q=32.0 size=    3218kB time=00:01:15.88 bitrate= 347.4kbits/s dup=1 drop=0 speed=4.94x    frame= 1891 fps=119 q=32.0 size=    3351kB time=00:01:19.04 bitrate= 347.3kbits/s dup=1 drop=0 speed=4.98x    frame= 1968 fps=120 q=32.0 size=    3468kB time=00:01:22.24 bitrate= 345.5kbits/s dup=1 drop=0 speed=5.02x    frame= 2014 fps=119 q=32.0 size=    3561kB time=00:01:24.16 bitrate= 346.6kbits/s dup=1 drop=0 speed=4.99x    frame= 2048 fps=118 q=32.0 size=    3684kB time=00:01:25.56 bitrate= 352.7kbits/s dup=1 drop=0 speed=4.92x    frame= 2087 fps=116 q=32.0 size=    3839kB time=00:01:27.23 bitrate= 360.5kbits/s dup=1 drop=0 speed=4.87x    frame= 2136 fps=116 q=32.0 size=    3969kB time=00:01:29.23 bitrate= 364.3kbits/s dup=1 drop=0 speed=4.84x    frame= 2205 fps=117 q=32.0 size=    4066kB time=00:01:32.09 bitrate= 361.6kbits/s dup=1 drop=0 speed=4.87x    frame= 2302 fps=119 q=32.0 size=    4152kB time=00:01:36.19 bitrate= 353.6kbits/s dup=1 drop=0 speed=4.95x    frame= 2403 fps=121 q=32.0 size=    4257kB time=00:01:40.37 bitrate= 347.4kbits/s dup=1 drop=0 speed=5.04x    frame= 2477 fps=121 q=32.0 size=    4333kB time=00:01:43.44 bitrate= 343.1kbits/s dup=1 drop=0 speed=5.06x    frame= 2558 fps=122 q=32.0 size=    4421kB time=00:01:46.85 bitrate= 338.9kbits/s dup=1 drop=0 speed=5.11x    frame= 2602 fps=121 q=32.0 size=    4507kB time=00:01:48.69 bitrate= 339.7kbits/s dup=1 drop=0 speed=5.07x    frame= 2650 fps=121 q=32.0 size=    4579kB time=00:01:50.69 bitrate= 338.9kbits/s dup=1 drop=0 speed=5.05x    frame= 2704 fps=121 q=32.0 size=    4669kB time=00:01:52.96 bitrate= 338.6kbits/s dup=1 drop=0 speed=5.04x    frame= 2761 fps=120 q=32.0 size=    4782kB time=00:01:55.30 bitrate= 339.7kbits/s dup=1 drop=0 speed=5.03x    frame= 2842 fps=121 q=32.0 size=    4888kB time=00:01:58.72 bitrate= 337.3kbits/s dup=1 drop=0 speed=5.06x    frame= 2888 fps=120 q=32.0 size=    4991kB time=00:02:00.64 bitrate= 338.9kbits/s dup=1 drop=0 speed=5.03x    frame= 2948 fps=120 q=32.0 size=    5114kB time=00:02:03.11 bitrate= 340.3kbits/s dup=1 drop=0 speed=5.03x    frame= 3023 fps=121 q=32.0 size=    5252kB time=00:02:06.23 bitrate= 340.8kbits/s dup=1 drop=0 speed=5.05x    frame= 3071 fps=120 q=32.0 size=    5351kB time=00:02:08.23 bitrate= 341.8kbits/s dup=1 drop=0 speed=5.03x    frame= 3140 fps=121 q=32.0 size=    5441kB time=00:02:11.09 bitrate= 340.0kbits/s dup=1 drop=0 speed=5.04x    frame= 3208 fps=121 q=32.0 size=    5549kB time=00:02:13.95 bitrate= 339.3kbits/s dup=1 drop=0 speed=5.05x    frame= 3251 fps=120 q=32.0 size=    5634kB time=00:02:15.74 bitrate= 340.0kbits/s dup=1 drop=0 speed=5.02x    frame= 3312 fps=120 q=32.0 size=    5756kB time=00:02:18.26 bitrate= 341.1kbits/s dup=1 drop=0 speed=5.02x    frame= 3393 fps=121 q=32.0 size=    5822kB time=00:02:21.67 bitrate= 336.6kbits/s dup=1 drop=0 speed=5.05x    frame= 3478 fps=122 q=32.0 size=    5910kB time=00:02:25.21 bitrate= 333.4kbits/s dup=1 drop=0 speed=5.08x    frame= 3549 fps=122 q=32.0 size=    5974kB time=00:02:28.16 bitrate= 330.3kbits/s dup=1 drop=0 speed=5.09x    frame= 3604 fps=122 q=32.0 size=    6058kB time=00:02:30.46 bitrate= 329.8kbits/s dup=1 drop=0 speed=5.09x    frame= 3664 fps=122 q=32.0 size=    6152kB time=00:02:32.98 bitrate= 329.4kbits/s dup=1 drop=0 speed=5.08x    frame= 3755 fps=123 q=32.0 size=    6275kB time=00:02:36.77 bitrate= 327.9kbits/s dup=1 drop=0 speed=5.13x    frame= 3873 fps=125 q=32.0 size=    6383kB time=00:02:41.68 bitrate= 323.4kbits/s dup=1 drop=0 speed= 5.2x    frame= 3975 fps=126 q=32.0 size=    6476kB time=00:02:45.95 bitrate= 319.7kbits/s dup=1 drop=0 speed=5.25x    frame= 4067 fps=127 q=32.0 size=    6536kB time=00:02:49.79 bitrate= 315.3kbits/s dup=1 drop=0 speed=5.29x    frame= 4160 fps=128 q=32.0 size=    6656kB time=00:02:53.67 bitrate= 313.9kbits/s dup=1 drop=0 speed=5.33x    frame= 4233 fps=128 q=32.0 size=    6726kB time=00:02:56.70 bitrate= 311.8kbits/s dup=1 drop=0 speed=5.34x    frame= 4309 fps=128 q=32.0 size=    6832kB time=00:02:59.86 bitrate= 311.2kbits/s dup=1 drop=0 speed=5.35x    frame= 4405 fps=129 q=32.0 size=    6926kB time=00:03:03.87 bitrate= 308.6kbits/s dup=1 drop=0 speed=5.39x    frame= 4490 fps=130 q=32.0 size=    7025kB time=00:03:07.45 bitrate= 307.0kbits/s dup=1 drop=0 speed=5.41x    frame= 4569 fps=130 q=32.0 size=    7098kB time=00:03:10.74 bitrate= 304.9kbits/s dup=1 drop=0 speed=5.43x    frame= 4623 fps=130 q=32.0 size=    7190kB time=00:03:12.96 bitrate= 305.3kbits/s dup=1 drop=0 speed=5.41x    frame= 4716 fps=130 q=32.0 size=    7312kB time=00:03:16.84 bitrate= 304.3kbits/s dup=1 drop=0 speed=5.45x    frame= 4798 fps=131 q=32.0 size=    7381kB time=00:03:20.29 bitrate= 301.9kbits/s dup=1 drop=0 speed=5.47x    frame= 4874 fps=131 q=32.0 size=    7473kB time=00:03:23.45 bitrate= 300.9kbits/s dup=1 drop=0 speed=5.48x    frame= 4970 fps=132 q=32.0 size=    7562kB time=00:03:27.46 bitrate= 298.6kbits/s dup=1 drop=0 speed=5.51x    frame= 5052 fps=132 q=32.0 size=    7667kB time=00:03:30.83 bitrate= 297.9kbits/s dup=1 drop=0 speed=5.53x    frame= 5146 fps=133 q=32.0 size=    7758kB time=00:03:34.80 bitrate= 295.9kbits/s dup=1 drop=0 speed=5.56x    frame= 5244 fps=134 q=32.0 size=    7836kB time=00:03:38.85 bitrate= 293.3kbits/s dup=1 drop=0 speed=5.58x    frame= 5332 fps=134 q=32.0 size=    7930kB time=00:03:42.57 bitrate= 291.9kbits/s dup=1 drop=0 speed=5.61x    frame= 5420 fps=135 q=32.0 size=    8039kB time=00:03:46.19 bitrate= 291.2kbits/s dup=1 drop=0 speed=5.63x    frame= 5507 fps=135 q=32.0 size=    8112kB time=00:03:49.86 bitrate= 289.1kbits/s dup=1 drop=0 speed=5.65x    frame= 5609 fps=136 q=32.0 size=    8199kB time=00:03:54.09 bitrate= 286.9kbits/s dup=1 drop=0 speed=5.68x    frame= 5698 fps=137 q=32.0 size=    8288kB time=00:03:57.80 bitrate= 285.5kbits/s dup=1 drop=0 speed= 5.7x    frame= 5808 fps=138 q=32.0 size=    8361kB time=00:04:02.41 bitrate= 282.6kbits/s dup=1 drop=0 speed=5.74x    frame= 5904 fps=138 q=32.0 size=    8444kB time=00:04:06.42 bitrate= 280.7kbits/s dup=1 drop=0 speed=5.77x    frame= 5984 fps=138 q=32.0 size=    8531kB time=00:04:09.75 bitrate= 279.8kbits/s dup=1 drop=0 speed=5.78x    frame= 6075 fps=139 q=32.0 size=    8629kB time=00:04:13.54 bitrate= 278.8kbits/s dup=1 drop=0 speed= 5.8x    frame= 6156 fps=139 q=32.0 size=    8696kB time=00:04:16.91 bitrate= 277.3kbits/s dup=1 drop=0 speed=5.81x    frame= 6231 fps=139 q=32.0 size=    8783kB time=00:04:20.03 bitrate= 276.7kbits/s dup=1 drop=0 speed=5.81x    frame= 6293 fps=139 q=32.0 size=    8848kB time=00:04:22.63 bitrate= 276.0kbits/s dup=1 drop=0 speed= 5.8x    frame= 6381 fps=139 q=32.0 size=    8918kB time=00:04:26.30 bitrate= 274.3kbits/s dup=1 drop=0 speed=5.82x    frame= 6450 fps=139 q=32.0 size=    9041kB time=00:04:29.16 bitrate= 275.2kbits/s dup=1 drop=0 speed=5.81x    frame= 6506 fps=139 q=32.0 size=    9103kB time=00:04:31.51 bitrate= 274.7kbits/s dup=1 drop=0 speed= 5.8x    frame= 6572 fps=139 q=32.0 size=    9148kB time=00:04:34.28 bitrate= 273.2kbits/s dup=1 drop=0 speed= 5.8x    frame= 6645 fps=139 q=32.0 size=    9231kB time=00:04:37.31 bitrate= 272.7kbits/s dup=1 drop=0 speed= 5.8x    frame= 6720 fps=139 q=32.0 size=    9279kB time=00:04:40.42 bitrate= 271.1kbits/s dup=1 drop=0 speed= 5.8x    frame= 6783 fps=139 q=32.0 size=    9348kB time=00:04:43.03 bitrate= 270.6kbits/s dup=1 drop=0 speed= 5.8x    frame= 6856 fps=139 q=32.0 size=    9447kB time=00:04:46.10 bitrate= 270.5kbits/s dup=1 drop=0 speed= 5.8x    frame= 6917 fps=139 q=32.0 size=    9532kB time=00:04:48.66 bitrate= 270.5kbits/s dup=1 drop=0 speed=5.79x    frame= 6989 fps=139 q=32.0 size=    9594kB time=00:04:51.69 bitrate= 269.4kbits/s dup=1 drop=0 speed=5.79x    frame= 7054 fps=139 q=32.0 size=    9712kB time=00:04:54.33 bitrate= 270.3kbits/s dup=1 drop=0 speed=5.79x    frame= 7125 fps=139 q=32.0 size=    9813kB time=00:04:57.32 bitrate= 270.4kbits/s dup=1 drop=0 speed=5.79x    frame= 7208 fps=139 q=32.0 size=    9901kB time=00:05:00.77 bitrate= 269.7kbits/s dup=1 drop=0 speed= 5.8x    frame= 7277 fps=139 q=32.0 size=   10002kB time=00:05:03.68 bitrate= 269.8kbits/s dup=1 drop=0 speed= 5.8x    frame= 7350 fps=139 q=32.0 size=   10062kB time=00:05:06.71 bitrate= 268.7kbits/s dup=1 drop=0 speed= 5.8x    frame= 7401 fps=139 q=32.0 size=   10161kB time=00:05:08.84 bitrate= 269.5kbits/s dup=1 drop=0 speed=5.79x    frame= 7459 fps=138 q=32.0 size=   10230kB time=00:05:11.27 bitrate= 269.2kbits/s dup=1 drop=0 speed=5.78x    frame= 7543 fps=139 q=32.0 size=   10306kB time=00:05:14.77 bitrate= 268.2kbits/s dup=1 drop=0 speed=5.79x    frame= 7621 fps=139 q=32.0 size=   10408kB time=00:05:18.01 bitrate= 268.1kbits/s dup=1 drop=0 speed=5.79x    frame= 7701 fps=139 q=32.0 size=   10495kB time=00:05:21.34 bitrate= 267.5kbits/s dup=1 drop=0 speed= 5.8x    frame= 7783 fps=139 q=32.0 size=   10577kB time=00:05:24.75 bitrate= 266.8kbits/s dup=1 drop=0 speed=5.81x    frame= 7868 fps=139 q=32.0 size=   10676kB time=00:05:28.29 bitrate= 266.4kbits/s dup=1 drop=0 speed=5.82x    frame= 7940 fps=140 q=32.0 size=   10753kB time=00:05:31.32 bitrate= 265.9kbits/s dup=1 drop=0 speed=5.82x    frame= 8016 fps=140 q=32.0 size=   10819kB time=00:05:34.48 bitrate= 265.0kbits/s dup=1 drop=0 speed=5.82x    frame= 8091 fps=140 q=32.0 size=   10909kB time=00:05:37.64 bitrate= 264.7kbits/s dup=1 drop=0 speed=5.83x    frame= 8181 fps=140 q=32.0 size=   11008kB time=00:05:41.35 bitrate= 264.2kbits/s dup=1 drop=0 speed=5.84x    frame= 8265 fps=140 q=32.0 size=   11070kB time=00:05:44.89 bitrate= 262.9kbits/s dup=1 drop=0 speed=5.85x    frame= 8343 fps=140 q=32.0 size=   11128kB time=00:05:48.13 bitrate= 261.8kbits/s dup=1 drop=0 speed=5.86x    frame= 8396 fps=140 q=29.0 size=   11193kB time=00:05:50.35 bitrate= 261.7kbits/s dup=1 drop=0 speed=5.84x    frame= 8485 fps=140 q=32.0 size=   11296kB time=00:05:54.02 bitrate= 261.4kbits/s dup=1 drop=0 speed=5.85x    frame= 8559 fps=140 q=32.0 size=   11418kB time=00:05:57.14 bitrate= 261.9kbits/s dup=1 drop=0 speed=5.85x    frame= 8644 fps=140 q=32.0 size=   11483kB time=00:06:00.68 bitrate= 260.8kbits/s dup=1 drop=0 speed=5.86x    frame= 8714 fps=140 q=32.0 size=   11575kB time=00:06:03.58 bitrate= 260.8kbits/s dup=1 drop=0 speed=5.86x    frame= 8767 fps=140 q=32.0 size=   11649kB time=00:06:05.80 bitrate= 260.9kbits/s dup=1 drop=0 speed=5.85x    frame= 8818 fps=140 q=32.0 size=   11724kB time=00:06:07.93 bitrate= 261.0kbits/s dup=1 drop=0 speed=5.84x    frame= 8874 fps=140 q=32.0 size=   11808kB time=00:06:10.28 bitrate= 261.2kbits/s dup=1 drop=0 speed=5.83x    frame= 8957 fps=140 q=32.0 size=   11918kB time=00:06:13.73 bitrate= 261.2kbits/s dup=1 drop=0 speed=5.83x    frame= 9033 fps=140 q=32.0 size=   11974kB time=00:06:16.93 bitrate= 260.2kbits/s dup=1 drop=0 speed=5.84x    frame= 9074 fps=139 q=32.0 size=   12088kB time=00:06:18.60 bitrate= 261.6kbits/s dup=1 drop=0 speed=5.82x    frame= 9133 fps=139 q=32.0 size=   12194kB time=00:06:21.07 bitrate= 262.1kbits/s dup=1 drop=0 speed=5.81x    frame= 9219 fps=139 q=32.0 size=   12309kB time=00:06:24.66 bitrate= 262.1kbits/s dup=1 drop=0 speed=5.82x    frame= 9282 fps=139 q=32.0 size=   12422kB time=00:06:27.30 bitrate= 262.7kbits/s dup=1 drop=0 speed=5.81x    frame= 9360 fps=139 q=32.0 size=   12487kB time=00:06:30.55 bitrate= 261.9kbits/s dup=1 drop=0 speed=5.82x    frame= 9404 fps=139 q=32.0 size=   12611kB time=00:06:32.38 bitrate= 263.3kbits/s dup=1 drop=0 speed= 5.8x    frame= 9459 fps=139 q=32.0 size=   12692kB time=00:06:34.68 bitrate= 263.4kbits/s dup=1 drop=0 speed=5.79x    frame= 9537 fps=139 q=32.0 size=   12787kB time=00:06:37.93 bitrate= 263.2kbits/s dup=1 drop=0 speed= 5.8x    frame= 9626 fps=139 q=32.0 size=   12877kB time=00:06:41.64 bitrate= 262.6kbits/s dup=1 drop=0 speed=5.81x    frame= 9698 fps=139 q=32.0 size=   12936kB time=00:06:44.63 bitrate= 261.9kbits/s dup=1 drop=0 speed=5.81x    frame= 9744 fps=139 q=32.0 size=   13027kB time=00:06:46.55 bitrate= 262.5kbits/s dup=1 drop=0 speed= 5.8x    frame= 9809 fps=139 q=32.0 size=   13115kB time=00:06:49.28 bitrate= 262.5kbits/s dup=1 drop=0 speed=5.79x    frame= 9895 fps=139 q=32.0 size=   13225kB time=00:06:52.86 bitrate= 262.4kbits/s dup=1 drop=0 speed= 5.8x    frame= 9955 fps=139 q=32.0 size=   13323kB time=00:06:55.38 bitrate= 262.8kbits/s dup=1 drop=0 speed= 5.8x    frame=10019 fps=139 q=32.0 size=   13409kB time=00:06:58.02 bitrate= 262.8kbits/s dup=1 drop=0 speed=5.79x    frame=10080 fps=139 q=32.0 size=   13492kB time=00:07:00.58 bitrate= 262.8kbits/s dup=1 drop=0 speed=5.79x    frame=10144 fps=139 q=32.0 size=   13574kB time=00:07:03.23 bitrate= 262.7kbits/s dup=1 drop=0 speed=5.78x    frame=10216 fps=139 q=32.0 size=   13714kB time=00:07:06.21 bitrate= 263.6kbits/s dup=1 drop=0 speed=5.78x    frame=10301 fps=139 q=32.0 size=   13827kB time=00:07:09.80 bitrate= 263.5kbits/s dup=1 drop=0 speed=5.79x    frame=10388 fps=139 q=32.0 size=   13899kB time=00:07:13.43 bitrate= 262.7kbits/s dup=1 drop=0 speed= 5.8x    frame=10467 fps=139 q=32.0 size=   13995kB time=00:07:16.71 bitrate= 262.5kbits/s dup=1 drop=0 speed=5.81x    frame=10563 fps=140 q=32.0 size=   14060kB time=00:07:20.72 bitrate= 261.3kbits/s dup=1 drop=0 speed=5.82x    frame=10639 fps=140 q=32.0 size=   14128kB time=00:07:23.88 bitrate= 260.7kbits/s dup=1 drop=0 speed=5.83x    frame=10716 fps=140 q=32.0 size=   14227kB time=00:07:27.08 bitrate= 260.7kbits/s dup=1 drop=0 speed=5.83x    frame=10807 fps=140 q=32.0 size=   14320kB time=00:07:30.92 bitrate= 260.2kbits/s dup=1 drop=0 speed=5.84x    frame=10891 fps=140 q=32.0 size=   14392kB time=00:07:34.42 bitrate= 259.5kbits/s dup=1 drop=0 speed=5.85x    frame=10979 fps=140 q=32.0 size=   14498kB time=00:07:38.04 bitrate= 259.3kbits/s dup=1 drop=0 speed=5.86x    frame=11067 fps=141 q=32.0 size=   14580kB time=00:07:41.71 bitrate= 258.7kbits/s dup=1 drop=0 speed=5.87x    frame=11135 fps=141 q=32.0 size=   14663kB time=00:07:44.57 bitrate= 258.6kbits/s dup=1 drop=0 speed=5.87x    frame=11210 fps=141 q=32.0 size=   14750kB time=00:07:47.69 bitrate= 258.4kbits/s dup=1 drop=0 speed=5.87x    frame=11308 fps=141 q=32.0 size=   14816kB time=00:07:51.78 bitrate= 257.3kbits/s dup=1 drop=0 speed=5.88x    frame=11414 fps=141 q=32.0 size=   14940kB time=00:07:56.22 bitrate= 257.0kbits/s dup=1 drop=0 speed= 5.9x    frame=11498 fps=141 q=32.0 size=   15003kB time=00:07:59.72 bitrate= 256.2kbits/s dup=1 drop=0 speed= 5.9x    frame=11559 fps=141 q=32.0 size=   15073kB time=00:08:02.24 bitrate= 256.1kbits/s dup=1 drop=0 speed= 5.9x    frame=11615 fps=141 q=32.0 size=   15173kB time=00:08:04.58 bitrate= 256.5kbits/s dup=1 drop=0 speed=5.89x    frame=11669 fps=141 q=32.0 size=   15263kB time=00:08:06.84 bitrate= 256.8kbits/s dup=1 drop=0 speed=5.88x    frame=11718 fps=141 q=32.0 size=   15348kB time=00:08:08.89 bitrate= 257.2kbits/s dup=1 drop=0 speed=5.87x    frame=11787 fps=141 q=32.0 size=   15449kB time=00:08:11.79 bitrate= 257.3kbits/s dup=1 drop=0 speed=5.87x    frame=11888 fps=141 q=32.0 size=   15539kB time=00:08:15.97 bitrate= 256.6kbits/s dup=1 drop=0 speed=5.88x    frame=11985 fps=141 q=32.0 size=   15624kB time=00:08:20.03 bitrate= 256.0kbits/s dup=1 drop=0 speed= 5.9x    frame=12087 fps=142 q=32.0 size=   15728kB time=00:08:24.29 bitrate= 255.5kbits/s dup=1 drop=0 speed=5.91x    frame=12186 fps=142 q=32.0 size=   15815kB time=00:08:28.39 bitrate= 254.8kbits/s dup=1 drop=0 speed=5.92x    frame=12291 fps=142 q=32.0 size=   15906kB time=00:08:32.79 bitrate= 254.1kbits/s dup=1 drop=0 speed=5.94x    frame=12396 fps=143 q=32.0 size=   15989kB time=00:08:37.18 bitrate= 253.3kbits/s dup=1 drop=0 speed=5.96x    frame=12488 fps=143 q=32.0 size=   16105kB time=00:08:41.02 bitrate= 253.2kbits/s dup=1 drop=0 speed=5.97x    frame=12580 fps=143 q=32.0 size=   16185kB time=00:08:44.86 bitrate= 252.6kbits/s dup=1 drop=0 speed=5.98x    frame=12671 fps=143 q=32.0 size=   16248kB time=00:08:48.66 bitrate= 251.8kbits/s dup=1 drop=0 speed=5.99x    frame=12775 fps=144 q=32.0 size=   16381kB time=00:08:52.97 bitrate= 251.8kbits/s dup=1 drop=0 speed=   6x    frame=12883 fps=144 q=32.0 size=   16452kB time=00:08:57.49 bitrate= 250.7kbits/s dup=1 drop=0 speed=6.02x    frame=12987 fps=145 q=32.0 size=   16558kB time=00:09:01.80 bitrate= 250.4kbits/s dup=1 drop=0 speed=6.03x    frame=13081 fps=145 q=32.0 size=   16688kB time=00:09:05.72 bitrate= 250.5kbits/s dup=1 drop=0 speed=6.04x    frame=13161 fps=145 q=32.0 size=   16764kB time=00:09:09.05 bitrate= 250.1kbits/s dup=1 drop=0 speed=6.04x    frame=13244 fps=145 q=32.0 size=   16837kB time=00:09:12.55 bitrate= 249.6kbits/s dup=1 drop=0 speed=6.05x    frame=13337 fps=145 q=32.0 size=   16961kB time=00:09:16.39 bitrate= 249.7kbits/s dup=1 drop=0 speed=6.06x    frame=13428 fps=145 q=32.0 size=   17053kB time=00:09:20.19 bitrate= 249.4kbits/s dup=1 drop=0 speed=6.06x    frame=13529 fps=146 q=32.0 size=   17115kB time=00:09:24.41 bitrate= 248.4kbits/s dup=1 drop=0 speed=6.08x    frame=13600 fps=146 q=32.0 size=   17221kB time=00:09:27.40 bitrate= 248.6kbits/s dup=1 drop=0 speed=6.08x    frame=13696 fps=146 q=32.0 size=   17305kB time=00:09:31.37 bitrate= 248.1kbits/s dup=1 drop=0 speed=6.09x    frame=13786 fps=146 q=32.0 size=   17386kB time=00:09:35.16 bitrate= 247.6kbits/s dup=1 drop=0 speed=6.09x    frame=13871 fps=146 q=32.0 size=   17507kB time=00:09:38.66 bitrate= 247.8kbits/s dup=1 drop=0 speed= 6.1x    frame=13948 fps=146 q=32.0 size=   17621kB time=00:09:41.91 bitrate= 248.1kbits/s dup=1 drop=0 speed= 6.1x    frame=14036 fps=146 q=32.0 size=   17738kB time=00:09:45.57 bitrate= 248.1kbits/s dup=1 drop=0 speed=6.11x    frame=14106 fps=146 q=32.0 size=   17847kB time=00:09:48.52 bitrate= 248.4kbits/s dup=1 drop=0 speed= 6.1x    frame=14210 fps=147 q=32.0 size=   17954kB time=00:09:52.83 bitrate= 248.1kbits/s dup=1 drop=0 speed=6.11x    frame=14312 fps=147 q=32.0 size=   18051kB time=00:09:57.09 bitrate= 247.6kbits/s dup=1 drop=0 speed=6.13x    frame=14401 fps=147 q=32.0 size=   18162kB time=00:10:00.81 bitrate= 247.6kbits/s dup=1 drop=0 speed=6.13x    frame=14495 fps=147 q=32.0 size=   18239kB time=00:10:04.73 bitrate= 247.1kbits/s dup=1 drop=0 speed=6.14x    frame=14584 fps=147 q=32.0 size=   18297kB time=00:10:08.40 bitrate= 246.4kbits/s dup=1 drop=0 speed=6.15x    frame=14669 fps=147 q=32.0 size=   18406kB time=00:10:11.99 bitrate= 246.4kbits/s dup=1 drop=0 speed=6.15x    frame=14745 fps=147 q=32.0 size=   18470kB time=00:10:15.14 bitrate= 246.0kbits/s dup=1 drop=0 speed=6.15x    frame=14835 fps=148 q=32.0 size=   18596kB time=00:10:18.90 bitrate= 246.1kbits/s dup=1 drop=0 speed=6.16x    frame=14919 fps=148 q=32.0 size=   18661kB time=00:10:22.40 bitrate= 245.6kbits/s dup=1 drop=0 speed=6.16x    frame=14994 fps=148 q=32.0 size=   18757kB time=00:10:25.51 bitrate= 245.6kbits/s dup=1 drop=0 speed=6.16x    frame=15063 fps=148 q=32.0 size=   18839kB time=00:10:28.41 bitrate= 245.6kbits/s dup=1 drop=0 speed=6.16x    frame=15143 fps=148 q=32.0 size=   18939kB time=00:10:31.74 bitrate= 245.6kbits/s dup=1 drop=0 speed=6.16x    frame=15197 fps=147 q=32.0 size=   19048kB time=00:10:34.00 bitrate= 246.1kbits/s dup=1 drop=0 speed=6.15x    frame=15275 fps=147 q=32.0 size=   19194kB time=00:10:37.29 bitrate= 246.7kbits/s dup=1 drop=0 speed=6.15x    frame=15371 fps=148 q=32.0 size=   19301kB time=00:10:41.25 bitrate= 246.6kbits/s dup=1 drop=0 speed=6.16x    frame=15481 fps=148 q=32.0 size=   19402kB time=00:10:45.82 bitrate= 246.1kbits/s dup=1 drop=0 speed=6.18x    frame=15567 fps=148 q=32.0 size=   19529kB time=00:10:49.45 bitrate= 246.3kbits/s dup=1 drop=0 speed=6.18x    frame=15669 fps=148 q=32.0 size=   19605kB time=00:10:53.67 bitrate= 245.7kbits/s dup=1 drop=0 speed=6.19x    frame=15729 fps=148 q=32.0 size=   19692kB time=00:10:56.19 bitrate= 245.8kbits/s dup=1 drop=0 speed=6.18x    frame=15788 fps=148 q=32.0 size=   19794kB time=00:10:58.66 bitrate= 246.2kbits/s dup=1 drop=0 speed=6.18x    frame=15851 fps=148 q=32.0 size=   19909kB time=00:11:01.27 bitrate= 246.6kbits/s dup=1 drop=0 speed=6.17x    frame=15935 fps=148 q=32.0 size=   19981kB time=00:11:04.76 bitrate= 246.2kbits/s dup=1 drop=0 speed=6.17x    frame=15997 fps=148 q=32.0 size=   20078kB time=00:11:07.37 bitrate= 246.5kbits/s dup=1 drop=0 speed=6.17x    frame=16082 fps=148 q=32.0 size=   20166kB time=00:11:10.91 bitrate= 246.2kbits/s dup=1 drop=0 speed=6.17x    frame=16139 fps=148 q=32.0 size=   20286kB time=00:11:13.30 bitrate= 246.8kbits/s dup=1 drop=0 speed=6.16x    frame=16231 fps=148 q=32.0 size=   20401kB time=00:11:17.14 bitrate= 246.8kbits/s dup=1 drop=0 speed=6.17x    frame=16308 fps=148 q=32.0 size=   20501kB time=00:11:20.29 bitrate= 246.9kbits/s dup=1 drop=0 speed=6.17x    frame=16364 fps=148 q=32.0 size=   20619kB time=00:11:22.68 bitrate= 247.4kbits/s dup=1 drop=0 speed=6.16x    frame=16443 fps=148 q=32.0 size=   20727kB time=00:11:25.97 bitrate= 247.5kbits/s dup=1 drop=0 speed=6.17x    frame=16541 fps=148 q=32.0 size=   20810kB time=00:11:30.02 bitrate= 247.1kbits/s dup=1 drop=0 speed=6.17x    frame=16633 fps=148 q=32.0 size=   20881kB time=00:11:33.86 bitrate= 246.5kbits/s dup=1 drop=0 speed=6.18x    frame=16705 fps=148 q=32.0 size=   21014kB time=00:11:36.89 bitrate= 247.0kbits/s dup=1 drop=0 speed=6.18x    frame=16793 fps=148 q=32.0 size=   21097kB time=00:11:40.56 bitrate= 246.7kbits/s dup=1 drop=0 speed=6.18x    frame=16882 fps=148 q=32.0 size=   21215kB time=00:11:44.27 bitrate= 246.8kbits/s dup=1 drop=0 speed=6.19x    frame=16977 fps=149 q=32.0 size=   21325kB time=00:11:48.24 bitrate= 246.7kbits/s dup=1 drop=0 speed= 6.2x    frame=17078 fps=149 q=32.0 size=   21428kB time=00:11:52.47 bitrate= 246.4kbits/s dup=1 drop=0 speed=6.21x    frame=17178 fps=149 q=32.0 size=   21504kB time=00:11:56.60 bitrate= 245.8kbits/s dup=1 drop=0 speed=6.22x    frame=17275 fps=149 q=32.0 size=   21602kB time=00:12:00.66 bitrate= 245.6kbits/s dup=1 drop=0 speed=6.22x    frame=17370 fps=149 q=32.0 size=   21667kB time=00:12:04.63 bitrate= 244.9kbits/s dup=1 drop=0 speed=6.23x    frame=17445 fps=149 q=32.0 size=   21777kB time=00:12:07.74 bitrate= 245.1kbits/s dup=1 drop=0 speed=6.23x    frame=17502 fps=149 q=32.0 size=   21852kB time=00:12:10.13 bitrate= 245.2kbits/s dup=1 drop=0 speed=6.22x    frame=17567 fps=149 q=32.0 size=   21936kB time=00:12:12.86 bitrate= 245.2kbits/s dup=1 drop=0 speed=6.22x    frame=17654 fps=149 q=32.0 size=   22005kB time=00:12:16.49 bitrate= 244.8kbits/s dup=1 drop=0 speed=6.23x    frame=17762 fps=150 q=32.0 size=   22099kB time=00:12:20.97 bitrate= 244.3kbits/s dup=1 drop=0 speed=6.24x    frame=17876 fps=150 q=32.0 size=   22194kB time=00:12:25.70 bitrate= 243.8kbits/s dup=1 drop=0 speed=6.25x    frame=17999 fps=150 q=32.0 size=   22267kB time=00:12:30.87 bitrate= 242.9kbits/s dup=1 drop=0 speed=6.27x    frame=18100 fps=150 q=32.0 size=   22366kB time=00:12:35.09 bitrate= 242.7kbits/s dup=1 drop=0 speed=6.28x    frame=18168 fps=150 q=32.0 size=   22452kB time=00:12:37.91 bitrate= 242.7kbits/s dup=1 drop=0 speed=6.27x    frame=18255 fps=150 q=29.0 size=   22534kB time=00:12:41.53 bitrate= 242.4kbits/s dup=1 drop=0 speed=6.28x    frame=18333 fps=150 q=32.0 size=   22619kB time=00:12:44.82 bitrate= 242.3kbits/s dup=1 drop=0 speed=6.28x    frame=18391 fps=150 q=32.0 size=   22654kB time=00:12:47.21 bitrate= 241.9kbits/s dup=1 drop=0 speed=6.27x    frame=18456 fps=150 q=32.0 size=   22729kB time=00:12:49.89 bitrate= 241.8kbits/s dup=1 drop=0 speed=6.27x    frame=18519 fps=150 q=32.0 size=   22783kB time=00:12:52.54 bitrate= 241.6kbits/s dup=1 drop=0 speed=6.26x    frame=18582 fps=150 q=32.0 size=   22840kB time=00:12:55.19 bitrate= 241.4kbits/s dup=1 drop=0 speed=6.26x    frame=18651 fps=150 q=32.0 size=   22930kB time=00:12:58.04 bitrate= 241.4kbits/s dup=1 drop=0 speed=6.26x    frame=18707 fps=150 q=32.0 size=   23000kB time=00:13:00.39 bitrate= 241.4kbits/s dup=1 drop=0 speed=6.25x    frame=18766 fps=150 q=32.0 size=   23063kB time=00:13:02.87 bitrate= 241.3kbits/s dup=1 drop=0 speed=6.24x    frame=18833 fps=150 q=32.0 size=   23147kB time=00:13:05.64 bitrate= 241.4kbits/s dup=1 drop=0 speed=6.24x    frame=18928 fps=150 q=32.0 size=   23224kB time=00:13:09.61 bitrate= 240.9kbits/s dup=1 drop=0 speed=6.25x    frame=19020 fps=150 q=32.0 size=   23295kB time=00:13:13.45 bitrate= 240.5kbits/s dup=1 drop=0 speed=6.25x    frame=19102 fps=150 q=32.0 size=   23351kB time=00:13:16.86 bitrate= 240.1kbits/s dup=1 drop=0 speed=6.26x    frame=19190 fps=150 q=32.0 size=   23422kB time=00:13:20.53 bitrate= 239.7kbits/s dup=1 drop=0 speed=6.26x    frame=19276 fps=150 q=32.0 size=   23512kB time=00:13:24.11 bitrate= 239.5kbits/s dup=1 drop=0 speed=6.26x    frame=19357 fps=150 q=32.0 size=   23565kB time=00:13:27.48 bitrate= 239.1kbits/s dup=1 drop=0 speed=6.26x    frame=19445 fps=150 q=32.0 size=   23620kB time=00:13:31.15 bitrate= 238.5kbits/s dup=1 drop=0 speed=6.27x    frame=19520 fps=150 q=32.0 size=   23701kB time=00:13:34.27 bitrate= 238.4kbits/s dup=1 drop=0 speed=6.27x    frame=19601 fps=150 q=32.0 size=   23787kB time=00:13:37.68 bitrate= 238.3kbits/s dup=1 drop=0 speed=6.27x    frame=19678 fps=150 q=32.0 size=   23861kB time=00:13:40.88 bitrate= 238.1kbits/s dup=1 drop=0 speed=6.27x    frame=19724 fps=150 q=32.0 size=   23961kB time=00:13:42.80 bitrate= 238.6kbits/s dup=1 drop=0 speed=6.26x    frame=19808 fps=150 q=32.0 size=   24073kB time=00:13:46.34 bitrate= 238.7kbits/s dup=1 drop=0 speed=6.26x    frame=19893 fps=150 q=32.0 size=   24140kB time=00:13:49.84 bitrate= 238.3kbits/s dup=1 drop=0 speed=6.27x    frame=19986 fps=150 q=32.0 size=   24203kB time=00:13:53.72 bitrate= 237.8kbits/s dup=1 drop=0 speed=6.27x    frame=20087 fps=151 q=32.0 size=   24284kB time=00:13:57.95 bitrate= 237.4kbits/s dup=1 drop=0 speed=6.28x    frame=20177 fps=151 q=32.0 size=   24350kB time=00:14:01.70 bitrate= 237.0kbits/s dup=1 drop=0 speed=6.28x    frame=20283 fps=151 q=32.0 size=   24435kB time=00:14:06.14 bitrate= 236.6kbits/s dup=1 drop=0 speed=6.29x    frame=20387 fps=151 q=32.0 size=   24502kB time=00:14:10.45 bitrate= 236.0kbits/s dup=1 drop=0 speed= 6.3x    frame=20488 fps=151 q=32.0 size=   24569kB time=00:14:14.67 bitrate= 235.5kbits/s dup=1 drop=0 speed=6.31x    frame=20585 fps=151 q=32.0 size=   24665kB time=00:14:18.73 bitrate= 235.3kbits/s dup=1 drop=0 speed=6.32x    frame=20681 fps=152 q=32.0 size=   24739kB time=00:14:22.74 bitrate= 234.9kbits/s dup=1 drop=0 speed=6.32x    frame=20782 fps=152 q=32.0 size=   24845kB time=00:14:26.96 bitrate= 234.8kbits/s dup=1 drop=0 speed=6.33x    frame=20884 fps=152 q=32.0 size=   24923kB time=00:14:31.19 bitrate= 234.4kbits/s dup=1 drop=0 speed=6.34x    frame=20978 fps=152 q=32.0 size=   25042kB time=00:14:35.11 bitrate= 234.4kbits/s dup=1 drop=0 speed=6.34x    frame=21071 fps=152 q=32.0 size=   25135kB time=00:14:39.04 bitrate= 234.2kbits/s dup=1 drop=0 speed=6.35x    frame=21157 fps=152 q=32.0 size=   25221kB time=00:14:42.58 bitrate= 234.1kbits/s dup=1 drop=0 speed=6.35x    frame=21246 fps=152 q=32.0 size=   25329kB time=00:14:46.29 bitrate= 234.1kbits/s dup=1 drop=0 speed=6.35x    frame=21338 fps=152 q=32.0 size=   25394kB time=00:14:50.13 bitrate= 233.7kbits/s dup=1 drop=0 speed=6.36x    frame=21438 fps=153 q=32.0 size=   25501kB time=00:14:54.31 bitrate= 233.6kbits/s dup=1 drop=0 speed=6.36x    frame=21539 fps=153 q=32.0 size=   25572kB time=00:14:58.49 bitrate= 233.2kbits/s dup=1 drop=0 speed=6.37x    frame=21616 fps=153 q=32.0 size=   25660kB time=00:15:01.73 bitrate= 233.1kbits/s dup=1 drop=0 speed=6.37x    frame=21714 fps=153 q=32.0 size=   25749kB time=00:15:05.79 bitrate= 232.9kbits/s dup=1 drop=0 speed=6.38x    frame=21808 fps=153 q=32.0 size=   25839kB time=00:15:09.76 bitrate= 232.7kbits/s dup=1 drop=0 speed=6.38x    frame=21902 fps=153 q=32.0 size=   25938kB time=00:15:13.64 bitrate= 232.6kbits/s dup=1 drop=0 speed=6.39x    frame=21965 fps=153 q=32.0 size=   26023kB time=00:15:16.28 bitrate= 232.7kbits/s dup=1 drop=0 speed=6.38x    frame=22039 fps=153 q=32.0 size=   26102kB time=00:15:19.36 bitrate= 232.6kbits/s dup=1 drop=0 speed=6.38x    frame=22118 fps=153 q=32.0 size=   26172kB time=00:15:22.64 bitrate= 232.4kbits/s dup=1 drop=0 speed=6.38x    frame=22206 fps=153 q=32.0 size=   26259kB time=00:15:26.31 bitrate= 232.2kbits/s dup=1 drop=0 speed=6.39x    frame=22304 fps=153 q=32.0 size=   26330kB time=00:15:30.41 bitrate= 231.8kbits/s dup=1 drop=0 speed=6.39x    frame=22391 fps=153 q=32.0 size=   26447kB time=00:15:34.03 bitrate= 232.0kbits/s dup=1 drop=0 speed= 6.4x    frame=22458 fps=153 q=32.0 size=   26524kB time=00:15:36.85 bitrate= 231.9kbits/s dup=1 drop=0 speed=6.39x    frame=22512 fps=153 q=32.0 size=   26620kB time=00:15:39.11 bitrate= 232.2kbits/s dup=1 drop=0 speed=6.39x    frame=22554 fps=153 q=32.0 size=   26729kB time=00:15:40.86 bitrate= 232.7kbits/s dup=1 drop=0 speed=6.38x    frame=22639 fps=153 q=32.0 size=   26796kB time=00:15:44.40 bitrate= 232.4kbits/s dup=1 drop=0 speed=6.38x    frame=22730 fps=153 q=32.0 size=   26888kB time=00:15:48.16 bitrate= 232.3kbits/s dup=1 drop=0 speed=6.38x    frame=22826 fps=153 q=32.0 size=   26976kB time=00:15:52.21 bitrate= 232.1kbits/s dup=1 drop=0 speed=6.39x    frame=22925 fps=153 q=32.0 size=   27038kB time=00:15:56.31 bitrate= 231.6kbits/s dup=1 drop=0 speed=6.39x    frame=22998 fps=153 q=32.0 size=   27124kB time=00:15:59.38 bitrate= 231.6kbits/s dup=1 drop=0 speed=6.39x    frame=23092 fps=153 q=32.0 size=   27208kB time=00:16:03.30 bitrate= 231.4kbits/s dup=1 drop=0 speed= 6.4x    frame=23190 fps=154 q=32.0 size=   27324kB time=00:16:07.36 bitrate= 231.4kbits/s dup=1 drop=0 speed= 6.4x    frame=23291 fps=154 q=32.0 size=   27425kB time=00:16:11.58 bitrate= 231.2kbits/s dup=1 drop=0 speed=6.41x    frame=23369 fps=154 q=32.0 size=   27523kB time=00:16:14.82 bitrate= 231.3kbits/s dup=1 drop=0 speed=6.41x    frame=23431 fps=154 q=32.0 size=   27642kB time=00:16:17.43 bitrate= 231.7kbits/s dup=1 drop=0 speed=6.41x    frame=23518 fps=154 q=32.0 size=   27739kB time=00:16:21.05 bitrate= 231.6kbits/s dup=1 drop=0 speed=6.41x    frame=23595 fps=154 q=32.0 size=   27828kB time=00:16:24.25 bitrate= 231.6kbits/s dup=1 drop=0 speed=6.41x    frame=23683 fps=154 q=32.0 size=   27942kB time=00:16:27.92 bitrate= 231.7kbits/s dup=1 drop=0 speed=6.41x    frame=23793 fps=154 q=32.0 size=   28017kB time=00:16:32.53 bitrate= 231.2kbits/s dup=1 drop=0 speed=6.42x    frame=23894 fps=154 q=32.0 size=   28108kB time=00:16:36.75 bitrate= 231.0kbits/s dup=1 drop=0 speed=6.43x    frame=23997 fps=154 q=32.0 size=   28198kB time=00:16:41.02 bitrate= 230.8kbits/s dup=1 drop=0 speed=6.43x    frame=24097 fps=154 q=32.0 size=   28277kB time=00:16:45.20 bitrate= 230.4kbits/s dup=1 drop=0 speed=6.44x    frame=24185 fps=154 q=32.0 size=   28356kB time=00:16:48.87 bitrate= 230.3kbits/s dup=1 drop=0 speed=6.44x    frame=24286 fps=155 q=32.0 size=   28449kB time=00:16:53.09 bitrate= 230.0kbits/s dup=1 drop=0 speed=6.45x    frame=24388 fps=155 q=32.0 size=   28511kB time=00:16:57.32 bitrate= 229.6kbits/s dup=1 drop=0 speed=6.45x    frame=24452 fps=155 q=32.0 size=   28615kB time=00:17:00.01 bitrate= 229.8kbits/s dup=1 drop=0 speed=6.45x    frame=24503 fps=154 q=32.0 size=   28698kB time=00:17:02.14 bitrate= 230.0kbits/s dup=1 drop=0 speed=6.44x    frame=24565 fps=154 q=32.0 size=   28798kB time=00:17:04.74 bitrate= 230.2kbits/s dup=1 drop=0 speed=6.44x    frame=24636 fps=154 q=32.0 size=   28885kB time=00:17:07.69 bitrate= 230.2kbits/s dup=1 drop=0 speed=6.44x    frame=24727 fps=154 q=32.0 size=   28992kB time=00:17:11.48 bitrate= 230.3kbits/s dup=1 drop=0 speed=6.44x    frame=24827 fps=155 q=32.0 size=   29075kB time=00:17:15.62 bitrate= 230.0kbits/s dup=1 drop=0 speed=6.45x    frame=24939 fps=155 q=32.0 size=   29177kB time=00:17:20.32 bitrate= 229.8kbits/s dup=1 drop=0 speed=6.46x    frame=25038 fps=155 q=32.0 size=   29278kB time=00:17:24.45 bitrate= 229.6kbits/s dup=1 drop=0 speed=6.46x    frame=25117 fps=155 q=32.0 size=   29357kB time=00:17:27.74 bitrate= 229.5kbits/s dup=1 drop=0 speed=6.46x    frame=25167 fps=155 q=32.0 size=   29442kB time=00:17:29.83 bitrate= 229.7kbits/s dup=1 drop=0 speed=6.45x    frame=25216 fps=155 q=32.0 size=   29530kB time=00:17:31.88 bitrate= 230.0kbits/s dup=1 drop=0 speed=6.45x    frame=25274 fps=154 q=32.0 size=   29606kB time=00:17:34.31 bitrate= 230.0kbits/s dup=1 drop=0 speed=6.44x    frame=25337 fps=154 q=32.0 size=   29671kB time=00:17:36.91 bitrate= 230.0kbits/s dup=1 drop=0 speed=6.44x    frame=25410 fps=154 q=32.0 size=   29757kB time=00:17:39.94 bitrate= 230.0kbits/s dup=1 drop=0 speed=6.44x    frame=25486 fps=154 q=32.0 size=   29839kB time=00:17:43.10 bitrate= 229.9kbits/s dup=1 drop=0 speed=6.44x    frame=25575 fps=154 q=32.0 size=   29930kB time=00:17:46.85 bitrate= 229.8kbits/s dup=1 drop=0 speed=6.44x    frame=25673 fps=154 q=32.0 size=   30041kB time=00:17:50.91 bitrate= 229.8kbits/s dup=1 drop=0 speed=6.44x    frame=25773 fps=155 q=32.0 size=   30120kB time=00:17:55.09 bitrate= 229.5kbits/s dup=1 drop=0 speed=6.45x    frame=25862 fps=155 q=32.0 size=   30234kB time=00:17:58.84 bitrate= 229.6kbits/s dup=1 drop=0 speed=6.45x    frame=25966 fps=155 q=32.0 size=   30335kB time=00:18:03.15 bitrate= 229.4kbits/s dup=1 drop=0 speed=6.46x    frame=26035 fps=155 q=32.0 size=   30398kB time=00:18:06.05 bitrate= 229.3kbits/s dup=1 drop=0 speed=6.46x    frame=26125 fps=155 q=32.0 size=   30520kB time=00:18:09.77 bitrate= 229.4kbits/s dup=1 drop=0 speed=6.46x    frame=26224 fps=155 q=32.0 size=   30614kB time=00:18:13.91 bitrate= 229.3kbits/s dup=1 drop=0 speed=6.46x    frame=26315 fps=155 q=32.0 size=   30723kB time=00:18:17.70 bitrate= 229.3kbits/s dup=1 drop=0 speed=6.47x    frame=26417 fps=155 q=32.0 size=   30828kB time=00:18:21.97 bitrate= 229.2kbits/s dup=1 drop=0 speed=6.47x    frame=26516 fps=155 q=32.0 size=   30924kB time=00:18:26.07 bitrate= 229.0kbits/s dup=1 drop=0 speed=6.48x    frame=26596 fps=155 q=32.0 size=   30989kB time=00:18:29.44 bitrate= 228.8kbits/s dup=1 drop=0 speed=6.48x    frame=26683 fps=155 q=32.0 size=   31070kB time=00:18:33.06 bitrate= 228.7kbits/s dup=1 drop=0 speed=6.48x    frame=26759 fps=155 q=32.0 size=   31174kB time=00:18:36.22 bitrate= 228.8kbits/s dup=1 drop=0 speed=6.48x    frame=26849 fps=155 q=32.0 size=   31246kB time=00:18:39.97 bitrate= 228.5kbits/s dup=1 drop=0 speed=6.48x    frame=26940 fps=155 q=32.0 size=   31337kB time=00:18:43.77 bitrate= 228.4kbits/s dup=1 drop=0 speed=6.49x    frame=27008 fps=155 q=32.0 size=   31435kB time=00:18:46.63 bitrate= 228.6kbits/s dup=1 drop=0 speed=6.48x    frame=27085 fps=155 q=32.0 size=   31533kB time=00:18:49.83 bitrate= 228.6kbits/s dup=1 drop=0 speed=6.48x    frame=27166 fps=155 q=32.0 size=   31653kB time=00:18:53.24 bitrate= 228.8kbits/s dup=1 drop=0 speed=6.48x    frame=27269 fps=156 q=32.0 size=   31718kB time=00:18:57.51 bitrate= 228.4kbits/s dup=1 drop=0 speed=6.49x    frame=27369 fps=156 q=32.0 size=   31801kB time=00:19:01.69 bitrate= 228.2kbits/s dup=1 drop=0 speed= 6.5x    frame=27449 fps=156 q=32.0 size=   31870kB time=00:19:05.02 bitrate= 228.0kbits/s dup=1 drop=0 speed= 6.5x    frame=27548 fps=156 q=32.0 size=   31959kB time=00:19:09.16 bitrate= 227.8kbits/s dup=1 drop=0 speed= 6.5x    frame=27620 fps=156 q=32.0 size=   32075kB time=00:19:12.15 bitrate= 228.1kbits/s dup=1 drop=0 speed= 6.5x    frame=27664 fps=156 q=32.0 size=   32182kB time=00:19:13.98 bitrate= 228.5kbits/s dup=1 drop=0 speed=6.49x    frame=27743 fps=156 q=32.0 size=   32304kB time=00:19:17.27 bitrate= 228.7kbits/s dup=1 drop=0 speed=6.49x    frame=27830 fps=156 q=32.0 size=   32359kB time=00:19:20.89 bitrate= 228.3kbits/s dup=1 drop=0 speed=6.49x    frame=27931 fps=156 q=32.0 size=   32468kB time=00:19:25.07 bitrate= 228.3kbits/s dup=1 drop=0 speed= 6.5x    frame=28019 fps=156 q=32.0 size=   32544kB time=00:19:28.79 bitrate= 228.1kbits/s dup=1 drop=0 speed= 6.5x    frame=28081 fps=156 q=32.0 size=   32611kB time=00:19:31.35 bitrate= 228.1kbits/s dup=1 drop=0 speed= 6.5x    frame=28141 fps=156 q=32.0 size=   32673kB time=00:19:33.86 bitrate= 228.0kbits/s dup=1 drop=0 speed=6.49x    frame=28196 fps=155 q=32.0 size=   32744kB time=00:19:36.17 bitrate= 228.1kbits/s dup=1 drop=0 speed=6.49x    frame=28268 fps=155 q=32.0 size=   32864kB time=00:19:39.15 bitrate= 228.3kbits/s dup=1 drop=0 speed=6.48x    frame=28339 fps=155 q=32.0 size=   32987kB time=00:19:42.10 bitrate= 228.6kbits/s dup=1 drop=0 speed=6.48x    frame=28423 fps=155 q=32.0 size=   33080kB time=00:19:45.64 bitrate= 228.6kbits/s dup=1 drop=0 speed=6.48x    frame=28489 fps=155 q=32.0 size=   33165kB time=00:19:48.37 bitrate= 228.6kbits/s dup=1 drop=0 speed=6.48x    frame=28573 fps=155 q=32.0 size=   33232kB time=00:19:51.87 bitrate= 228.4kbits/s dup=1 drop=0 speed=6.48x    frame=28661 fps=155 q=32.0 size=   33307kB time=00:19:55.54 bitrate= 228.2kbits/s dup=1 drop=0 speed=6.48x    frame=28736 fps=155 q=32.0 size=   33401kB time=00:19:58.65 bitrate= 228.3kbits/s dup=1 drop=0 speed=6.48x    frame=28813 fps=155 q=32.0 size=   33460kB time=00:20:01.89 bitrate= 228.1kbits/s dup=1 drop=0 speed=6.48x    frame=28900 fps=155 q=32.0 size=   33523kB time=00:20:05.52 bitrate= 227.8kbits/s dup=1 drop=0 speed=6.49x    frame=28980 fps=155 q=32.0 size=   33622kB time=00:20:08.85 bitrate= 227.8kbits/s dup=1 drop=0 speed=6.49x    frame=29045 fps=155 q=32.0 size=   33693kB time=00:20:11.58 bitrate= 227.8kbits/s dup=1 drop=0 speed=6.48x    frame=29102 fps=155 q=32.0 size=   33786kB time=00:20:13.93 bitrate= 228.0kbits/s dup=1 drop=0 speed=6.48x    frame=29186 fps=155 q=32.0 size=   33868kB time=00:20:17.43 bitrate= 227.9kbits/s dup=1 drop=0 speed=6.48x    frame=29279 fps=155 q=32.0 size=   33953kB time=00:20:21.35 bitrate= 227.7kbits/s dup=1 drop=0 speed=6.48x    frame=29342 fps=155 q=32.0 size=   34068kB time=00:20:23.95 bitrate= 228.0kbits/s dup=1 drop=0 speed=6.48x    frame=29430 fps=155 q=32.0 size=   34154kB time=00:20:27.62 bitrate= 227.9kbits/s dup=1 drop=0 speed=6.48x    frame=29499 fps=155 q=32.0 size=   34262kB time=00:20:30.48 bitrate= 228.1kbits/s dup=1 drop=0 speed=6.48x    frame=29566 fps=155 q=32.0 size=   34342kB time=00:20:33.30 bitrate= 228.1kbits/s dup=1 drop=0 speed=6.48x    frame=29645 fps=155 q=32.0 size=   34447kB time=00:20:36.58 bitrate= 228.2kbits/s dup=1 drop=0 speed=6.48x    frame=29716 fps=155 q=32.0 size=   34564kB time=00:20:39.57 bitrate= 228.4kbits/s dup=1 drop=0 speed=6.47x    frame=29783 fps=155 q=32.0 size=   34664kB time=00:20:42.34 bitrate= 228.6kbits/s dup=1 drop=0 speed=6.47x    frame=29867 fps=155 q=32.0 size=   34795kB time=00:20:45.84 bitrate= 228.8kbits/s dup=1 drop=0 speed=6.47x    frame=29967 fps=155 q=32.0 size=   34889kB time=00:20:50.02 bitrate= 228.6kbits/s dup=1 drop=0 speed=6.48x    frame=30056 fps=155 q=32.0 size=   34981kB time=00:20:53.73 bitrate= 228.6kbits/s dup=1 drop=0 speed=6.48x    frame=30136 fps=155 q=32.0 size=   35081kB time=00:20:57.06 bitrate= 228.6kbits/s dup=1 drop=0 speed=6.48x    frame=30217 fps=155 q=32.0 size=   35165kB time=00:21:00.43 bitrate= 228.5kbits/s dup=1 drop=0 speed=6.48x    frame=30282 fps=155 q=32.0 size=   35245kB time=00:21:03.21 bitrate= 228.6kbits/s dup=1 drop=0 speed=6.48x    frame=30357 fps=155 q=32.0 size=   35371kB time=00:21:06.28 bitrate= 228.8kbits/s dup=1 drop=0 speed=6.48x    frame=30446 fps=155 q=32.0 size=   35451kB time=00:21:09.99 bitrate= 228.7kbits/s dup=1 drop=0 speed=6.48x    frame=30520 fps=155 q=32.0 size=   35569kB time=00:21:13.11 bitrate= 228.9kbits/s dup=1 drop=0 speed=6.48x    frame=30587 fps=155 q=32.0 size=   35669kB time=00:21:15.88 bitrate= 229.0kbits/s dup=1 drop=0 speed=6.48x    frame=30673 fps=155 q=32.0 size=   35747kB time=00:21:19.46 bitrate= 228.9kbits/s dup=1 drop=0 speed=6.48x    frame=30771 fps=155 q=32.0 size=   35881kB time=00:21:23.56 bitrate= 229.0kbits/s dup=1 drop=0 speed=6.48x    frame=30842 fps=155 q=32.0 size=   36028kB time=00:21:26.50 bitrate= 229.4kbits/s dup=1 drop=0 speed=6.48x    frame=30932 fps=155 q=32.0 size=   36108kB time=00:21:30.30 bitrate= 229.2kbits/s dup=1 drop=0 speed=6.48x    frame=31027 fps=155 q=32.0 size=   36174kB time=00:21:34.23 bitrate= 229.0kbits/s dup=1 drop=0 speed=6.49x    frame=31108 fps=156 q=32.0 size=   36309kB time=00:21:37.60 bitrate= 229.2kbits/s dup=1 drop=0 speed=6.49x    frame=31193 fps=156 q=32.0 size=   36434kB time=00:21:41.14 bitrate= 229.4kbits/s dup=1 drop=0 speed=6.49x    frame=31278 fps=156 q=32.0 size=   36524kB time=00:21:44.72 bitrate= 229.3kbits/s dup=1 drop=0 speed=6.49x    frame=31355 fps=156 q=32.0 size=   36635kB time=00:21:47.92 bitrate= 229.5kbits/s dup=1 drop=0 speed=6.49x    frame=31420 fps=155 q=32.0 size=   36760kB time=00:21:50.65 bitrate= 229.8kbits/s dup=1 drop=0 speed=6.48x    frame=31470 fps=155 q=32.0 size=   36880kB time=00:21:52.74 bitrate= 230.1kbits/s dup=1 drop=0 speed=6.48x    frame=31512 fps=155 q=32.0 size=   36988kB time=00:21:54.49 bitrate= 230.5kbits/s dup=1 drop=0 speed=6.47x    frame=31555 fps=155 q=32.0 size=   37100kB time=00:21:56.24 bitrate= 230.9kbits/s dup=1 drop=0 speed=6.46x    frame=31602 fps=155 q=32.0 size=   37242kB time=00:21:58.20 bitrate= 231.4kbits/s dup=1 drop=0 speed=6.46x    frame=31636 fps=155 q=32.0 size=   37319kB time=00:21:59.65 bitrate= 231.7kbits/s dup=1 drop=0 speed=6.45x    frame=31686 fps=154 q=32.0 size=   37420kB time=00:22:01.70 bitrate= 231.9kbits/s dup=1 drop=0 speed=6.44x    frame=31747 fps=154 q=32.0 size=   37510kB time=00:22:04.26 bitrate= 232.0kbits/s dup=1 drop=0 speed=6.44x    frame=31801 fps=154 q=32.0 size=   37629kB time=00:22:06.52 bitrate= 232.4kbits/s dup=1 drop=0 speed=6.43x    frame=31844 fps=154 q=32.0 size=   37724kB time=00:22:08.32 bitrate= 232.7kbits/s dup=1 drop=0 speed=6.43x    frame=31905 fps=154 q=32.0 size=   37850kB time=00:22:10.88 bitrate= 233.0kbits/s dup=1 drop=0 speed=6.42x    frame=31973 fps=154 q=32.0 size=   38004kB time=00:22:13.69 bitrate= 233.4kbits/s dup=1 drop=0 speed=6.42x    frame=32047 fps=154 q=32.0 size=   38109kB time=00:22:16.76 bitrate= 233.5kbits/s dup=1 drop=0 speed=6.42x    frame=32115 fps=154 q=32.0 size=   38228kB time=00:22:19.62 bitrate= 233.8kbits/s dup=1 drop=0 speed=6.42x    frame=32174 fps=154 q=32.0 size=   38366kB time=00:22:22.05 bitrate= 234.2kbits/s dup=1 drop=0 speed=6.42x    frame=32250 fps=154 q=32.0 size=   38466kB time=00:22:25.25 bitrate= 234.2kbits/s dup=1 drop=0 speed=6.42x    frame=32317 fps=154 q=32.0 size=   38576kB time=00:22:28.07 bitrate= 234.4kbits/s dup=1 drop=0 speed=6.41x    frame=32385 fps=154 q=32.0 size=   38687kB time=00:22:30.89 bitrate= 234.6kbits/s dup=1 drop=0 speed=6.41x    frame=32453 fps=154 q=32.0 size=   38801kB time=00:22:33.70 bitrate= 234.8kbits/s dup=1 drop=0 speed=6.41x    frame=32502 fps=154 q=32.0 size=   38891kB time=00:22:35.75 bitrate= 235.0kbits/s dup=1 drop=0 speed= 6.4x    frame=32549 fps=153 q=32.0 size=   39030kB time=00:22:37.71 bitrate= 235.5kbits/s dup=1 drop=0 speed= 6.4x    frame=32597 fps=153 q=32.0 size=   39161kB time=00:22:39.72 bitrate= 235.9kbits/s dup=1 drop=0 speed=6.39x    frame=32651 fps=153 q=32.0 size=   39249kB time=00:22:41.98 bitrate= 236.1kbits/s dup=1 drop=0 speed=6.38x    frame=32706 fps=153 q=32.0 size=   39342kB time=00:22:44.28 bitrate= 236.2kbits/s dup=1 drop=0 speed=6.38x    frame=32744 fps=153 q=32.0 size=   39456kB time=00:22:45.86 bitrate= 236.6kbits/s dup=1 drop=0 speed=6.37x    frame=32812 fps=153 q=32.0 size=   39581kB time=00:22:48.68 bitrate= 236.9kbits/s dup=1 drop=0 speed=6.37x    frame=32891 fps=153 q=32.0 size=   39713kB time=00:22:51.96 bitrate= 237.1kbits/s dup=1 drop=0 speed=6.37x    frame=32967 fps=153 q=32.0 size=   39807kB time=00:22:55.16 bitrate= 237.1kbits/s dup=1 drop=0 speed=6.37x    frame=33030 fps=153 q=32.0 size=   39897kB time=00:22:57.77 bitrate= 237.2kbits/s dup=1 drop=0 speed=6.36x    frame=33091 fps=152 q=32.0 size=   39987kB time=00:23:00.33 bitrate= 237.3kbits/s dup=1 drop=0 speed=6.36x    frame=33147 fps=152 q=32.0 size=   40101kB time=00:23:02.67 bitrate= 237.6kbits/s dup=1 drop=0 speed=6.36x    frame=33201 fps=152 q=32.0 size=   40202kB time=00:23:04.93 bitrate= 237.8kbits/s dup=1 drop=0 speed=6.35x    frame=33252 fps=152 q=32.0 size=   40305kB time=00:23:07.07 bitrate= 238.0kbits/s dup=1 drop=0 speed=6.35x    frame=33322 fps=152 q=32.0 size=   40391kB time=00:23:09.97 bitrate= 238.0kbits/s dup=1 drop=0 speed=6.34x    frame=33397 fps=152 q=32.0 size=   40496kB time=00:23:13.08 bitrate= 238.1kbits/s dup=1 drop=0 speed=6.34x    frame=33437 fps=152 q=32.0 size=   40584kB time=00:23:14.75 bitrate= 238.4kbits/s dup=1 drop=0 speed=6.34x    frame=33500 fps=152 q=32.0 size=   40709kB time=00:23:17.35 bitrate= 238.7kbits/s dup=1 drop=0 speed=6.33x    frame=33567 fps=152 q=32.0 size=   40777kB time=00:23:20.17 bitrate= 238.6kbits/s dup=1 drop=0 speed=6.33x    frame=33638 fps=152 q=32.0 size=   40851kB time=00:23:23.11 bitrate= 238.5kbits/s dup=1 drop=0 speed=6.33x    frame=33718 fps=152 q=32.0 size=   40943kB time=00:23:26.48 bitrate= 238.5kbits/s dup=1 drop=0 speed=6.33x    frame=33788 fps=152 q=32.0 size=   41042kB time=00:23:29.38 bitrate= 238.6kbits/s dup=1 drop=0 speed=6.33x    frame=33851 fps=152 q=32.0 size=   41147kB time=00:23:32.03 bitrate= 238.7kbits/s dup=1 drop=0 speed=6.33x    frame=33914 fps=152 q=32.0 size=   41203kB time=00:23:34.63 bitrate= 238.6kbits/s dup=1 drop=0 speed=6.33x    frame=33975 fps=152 q=32.0 size=   41296kB time=00:23:37.19 bitrate= 238.7kbits/s dup=1 drop=0 speed=6.32x    frame=34044 fps=152 q=32.0 size=   41341kB time=00:23:40.05 bitrate= 238.5kbits/s dup=1 drop=0 speed=6.32x    frame=34084 fps=151 q=32.0 size=   41444kB time=00:23:41.71 bitrate= 238.8kbits/s dup=1 drop=0 speed=6.31x    frame=34123 fps=151 q=32.0 size=   41523kB time=00:23:43.38 bitrate= 239.0kbits/s dup=1 drop=0 speed=6.31x    frame=34182 fps=151 q=32.0 size=   41624kB time=00:23:45.81 bitrate= 239.2kbits/s dup=1 drop=0 speed= 6.3x    frame=34246 fps=151 q=32.0 size=   41674kB time=00:23:48.50 bitrate= 239.0kbits/s dup=1 drop=0 speed= 6.3x    frame=34320 fps=151 q=32.0 size=   41739kB time=00:23:51.61 bitrate= 238.8kbits/s dup=1 drop=0 speed= 6.3x    frame=34371 fps=151 q=32.0 size=   41838kB time=00:23:53.70 bitrate= 239.1kbits/s dup=1 drop=0 speed= 6.3x    frame=34435 fps=151 q=32.0 size=   41925kB time=00:23:56.39 bitrate= 239.1kbits/s dup=1 drop=0 speed=6.29x    frame=34487 fps=151 q=32.0 size=   42078kB time=00:23:58.57 bitrate= 239.6kbits/s dup=1 drop=0 speed=6.29x    frame=34549 fps=151 q=32.0 size=   42195kB time=00:24:01.13 bitrate= 239.9kbits/s dup=1 drop=0 speed=6.29x    frame=34620 fps=151 q=32.0 size=   42277kB time=00:24:04.11 bitrate= 239.8kbits/s dup=1 drop=0 speed=6.29x    frame=34658 fps=151 q=32.0 size=   42379kB time=00:24:05.69 bitrate= 240.1kbits/s dup=1 drop=0 speed=6.28x    frame=34703 fps=150 q=32.0 size=   42556kB time=00:24:07.57 bitrate= 240.8kbits/s dup=1 drop=0 speed=6.27x    frame=34764 fps=150 q=32.0 size=   42695kB time=00:24:10.09 bitrate= 241.2kbits/s dup=1 drop=0 speed=6.27x    frame=34862 fps=150 q=32.0 size=   42761kB time=00:24:14.18 bitrate= 240.9kbits/s dup=1 drop=0 speed=6.27x    frame=34954 fps=150 q=32.0 size=   42878kB time=00:24:18.02 bitrate= 240.9kbits/s dup=1 drop=0 speed=6.28x    frame=35040 fps=151 q=32.0 size=   42986kB time=00:24:21.61 bitrate= 240.9kbits/s dup=1 drop=0 speed=6.28x    frame=35129 fps=151 q=29.0 size=   43058kB time=00:24:25.32 bitrate= 240.7kbits/s dup=1 drop=0 speed=6.28x    frame=35222 fps=151 q=32.0 size=   43164kB time=00:24:29.20 bitrate= 240.7kbits/s dup=1 drop=0 speed=6.28x    [mp4 @ 0x3df06c0] Starting second pass: moving the moov atom to the beginning of the file
frame=35231 fps=151 q=-1.0 Lsize=   44044kB time=00:24:29.37 bitrate= 245.5kbits/s dup=1 drop=0 speed=6.28x    
video:33839kB audio:9369kB subtitle:0kB other streams:0kB global headers:0kB muxing overhead: 1.934397%
[libx264 @ 0x3e61340] frame I:278   Avg QP:22.43  size: 16581
[libx264 @ 0x3e61340] frame P:11278 Avg QP:24.37  size:  2147
[libx264 @ 0x3e61340] frame B:23675 Avg QP:28.16  size:   246
[libx264 @ 0x3e61340] consecutive B-frames:  3.6% 11.6% 26.5% 58.3%
[libx264 @ 0x3e61340] mb I  I16..4: 29.5% 42.9% 27.6%
[libx264 @ 0x3e61340] mb P  I16..4:  4.8%  4.4%  0.8%  P16..4: 29.4%  3.7%  3.5%  0.1%  0.0%    skip:53.4%
[libx264 @ 0x3e61340] mb B  I16..4:  0.2%  0.2%  0.0%  B16..8: 11.1%  0.5%  0.1%  direct: 0.5%  skip:87.4%  L0:37.0% L1:61.5% BI: 1.4%
[libx264 @ 0x3e61340] 8x8 transform intra:43.8% inter:54.7%
[libx264 @ 0x3e61340] coded y,uvDC,uvAC intra: 22.9% 46.6% 11.2% inter: 1.4% 3.8% 0.0%
[libx264 @ 0x3e61340] i16 v,h,dc,p: 45% 29% 17%  9%
[libx264 @ 0x3e61340] i8 v,h,dc,ddl,ddr,vr,hd,vl,hu: 21% 16% 48%  3%  2%  3%  2%  3%  3%
[libx264 @ 0x3e61340] i4 v,h,dc,ddl,ddr,vr,hd,vl,hu: 27% 21% 18%  6%  6%  6%  6%  6%  5%
[libx264 @ 0x3e61340] i8c dc,h,v,p: 48% 24% 23%  5%
[libx264 @ 0x3e61340] Weighted P-Frames: Y:2.4% UV:1.2%
[libx264 @ 0x3e61340] ref P L0: 62.1%  9.8% 12.0%  4.2%  3.4%  3.2%  3.1%  1.6%  0.6%  0.0%
[libx264 @ 0x3e61340] ref B L0: 84.5%  6.1%  4.6%  1.5%  1.2%  1.1%  0.9%
[libx264 @ 0x3e61340] ref B L1: 94.7%  5.3%
[libx264 @ 0x3e61340] kb/s:188.65
